<svg width="3077" height="2750" viewBox="0 0 3077 2750" fill="none" xmlns="http://www.w3.org/2000/svg">
<rect width="3077" height="2750" fill="#1E1E1E"/>
<g id="undraw_happy_music_g6wc 1">
<path id="Vector" d="M2536.48 723.485C2731.08 723.485 2888.83 561.527 2888.83 361.742C2888.83 161.958 2731.08 0 2536.48 0C2341.88 0 2184.13 161.958 2184.13 361.742C2184.13 561.527 2341.88 723.485 2536.48 723.485Z" fill="#FF6767"/>
<path id="Vector_2" d="M623.323 2609.82C623.323 2609.82 628.477 2498.94 734.134 2511.83L623.323 2609.82Z" fill="#3F3D56"/>
<path id="Vector_3" d="M593.469 2504.31C622.674 2504.31 646.35 2480 646.35 2450.02C646.35 2420.03 622.674 2395.73 593.469 2395.73C564.264 2395.73 540.588 2420.03 540.588 2450.02C540.588 2480 564.264 2504.31 593.469 2504.31Z" fill="#6C63FF"/>
<path id="Vector_4" d="M599.791 2541.44H584.864V2648.71H599.791V2541.44Z" fill="#3F3D56"/>
<path id="Vector_5" d="M2364.79 2628.76C2364.79 2628.76 2369.95 2517.88 2475.6 2530.77L2364.79 2628.76Z" fill="#3F3D56"/>
<path id="Vector_6" d="M2334.94 2523.25C2364.14 2523.25 2387.82 2498.94 2387.82 2468.96C2387.82 2438.97 2364.14 2414.67 2334.94 2414.67C2305.73 2414.67 2282.06 2438.97 2282.06 2468.96C2282.06 2498.94 2305.73 2523.25 2334.94 2523.25Z" fill="#6C63FF"/>
<path id="Vector_7" d="M2341.26 2560.38H2326.33V2667.65H2341.26V2560.38Z" fill="#3F3D56"/>
<path id="Vector_8" d="M2619.37 2647.69C2619.37 2647.69 2624.52 2536.82 2730.18 2549.71L2619.37 2647.69Z" fill="#3F3D56"/>
<path id="Vector_9" d="M2589.52 2542.18C2618.72 2542.18 2642.4 2517.88 2642.4 2487.89C2642.4 2457.91 2618.72 2433.6 2589.52 2433.6C2560.31 2433.6 2536.64 2457.91 2536.64 2487.89C2536.64 2517.88 2560.31 2542.18 2589.52 2542.18Z" fill="#6C63FF"/>
<path id="Vector_10" d="M2595.84 2579.32H2580.91V2686.59H2595.84V2579.32Z" fill="#3F3D56"/>
<path id="Vector_11" d="M1040.24 2556.79C1040.24 2556.79 1045.4 2445.91 1151.05 2458.8L1040.24 2556.79Z" fill="#3F3D56"/>
<path id="Vector_12" d="M1010.39 2451.28C1039.59 2451.28 1063.27 2426.97 1063.27 2396.99C1063.27 2367 1039.59 2342.7 1010.39 2342.7C981.183 2342.7 957.507 2367 957.507 2396.99C957.507 2426.97 981.183 2451.28 1010.39 2451.28Z" fill="#6C63FF"/>
<path id="Vector_13" d="M1016.71 2488.41H1001.78V2595.68H1016.71V2488.41Z" fill="#3F3D56"/>
<path id="Vector_14" d="M254.368 2575.73C254.368 2575.73 259.522 2464.85 365.179 2477.74L254.368 2575.73Z" fill="#3F3D56"/>
<path id="Vector_15" d="M224.514 2470.22C253.719 2470.22 277.394 2445.91 277.394 2415.93C277.394 2385.94 253.719 2361.64 224.514 2361.64C195.308 2361.64 171.633 2385.94 171.633 2415.93C171.633 2445.91 195.308 2470.22 224.514 2470.22Z" fill="#6C63FF"/>
<path id="Vector_16" d="M230.836 2507.35H215.909V2614.62H230.836V2507.35Z" fill="#3F3D56"/>
<path class="head" d="M1532.92 2383.06C1851.12 2383.06 2109.07 2118.24 2109.07 1791.56C2109.07 1464.89 1851.12 1200.07 1532.92 1200.07C1214.73 1200.07 956.779 1464.89 956.779 1791.56C956.779 2118.24 1214.73 2383.06 1532.92 2383.06Z" fill="#3F3D56"/>
<path id="Vector_17" d="M1170.2 1839.05C1184.51 1821.46 1202.41 1807.31 1222.63 1797.6C1242.85 1787.9 1264.89 1782.86 1287.21 1782.86C1309.53 1782.86 1331.58 1787.9 1351.8 1797.6C1372.02 1807.31 1389.92 1821.46 1404.22 1839.05C1428.71 1815.05 1445.63 1784.07 1452.81 1750.11C1459.99 1716.15 1457.1 1680.76 1444.51 1648.5C1431.92 1616.24 1410.21 1588.6 1382.17 1569.12C1354.14 1549.65 1321.06 1539.24 1287.21 1539.24C1253.36 1539.24 1220.29 1549.65 1192.25 1569.12C1164.22 1588.6 1142.51 1616.24 1129.92 1648.5C1117.33 1680.76 1114.44 1716.15 1121.62 1750.11C1128.8 1784.07 1145.72 1815.05 1170.2 1839.05Z" fill="white"/>
<path id="Vector_18" d="M1627.73 1839.05C1642.04 1821.46 1659.93 1807.31 1680.15 1797.6C1700.37 1787.9 1722.42 1782.86 1744.74 1782.86C1767.06 1782.86 1789.11 1787.9 1809.33 1797.6C1829.55 1807.31 1847.44 1821.46 1861.75 1839.05C1886.23 1815.05 1903.16 1784.07 1910.34 1750.11C1917.52 1716.15 1914.63 1680.76 1902.04 1648.5C1889.45 1616.24 1867.73 1588.6 1839.7 1569.12C1811.66 1549.65 1778.59 1539.24 1744.74 1539.24C1710.89 1539.24 1677.82 1549.65 1649.78 1569.12C1621.75 1588.6 1600.03 1616.24 1587.44 1648.5C1574.85 1680.76 1571.96 1716.15 1579.14 1750.11C1586.32 1784.07 1603.25 1815.05 1627.73 1839.05Z" fill="white"/>
<path id="left-eye" d="M1229.41 1713.81C1261.6 1713.81 1287.7 1687.02 1287.7 1653.97C1287.7 1620.92 1261.6 1594.13 1229.41 1594.13C1197.22 1594.13 1171.12 1620.92 1171.12 1653.97C1171.12 1687.02 1197.22 1713.81 1229.41 1713.81Z" fill="#3F3D56"/>
<path id="right-eye" d="M1686.92 1713.81C1719.11 1713.81 1745.21 1687.02 1745.21 1653.97C1745.21 1620.92 1719.11 1594.13 1686.92 1594.13C1654.72 1594.13 1628.63 1620.92 1628.63 1653.97C1628.63 1687.02 1654.72 1713.81 1686.92 1713.81Z" fill="#3F3D56"/>
<path id="Vector_19" d="M1117.76 2009.03C1155.19 2009.03 1185.54 1977.87 1185.54 1939.44C1185.54 1901.01 1155.19 1869.85 1117.76 1869.85C1080.33 1869.85 1049.98 1901.01 1049.98 1939.44C1049.98 1977.87 1080.33 2009.03 1117.76 2009.03Z" fill="#FF6584"/>
<path id="Vector_20" d="M1897.25 2009.03C1934.68 2009.03 1965.03 1977.87 1965.03 1939.44C1965.03 1901.01 1934.68 1869.85 1897.25 1869.85C1859.81 1869.85 1829.47 1901.01 1829.47 1939.44C1829.47 1977.87 1859.81 2009.03 1897.25 2009.03Z" fill="#FF6584"/>
<path id="Vector_21" d="M1507.5 1800.26L1456.67 2026.42L1541.39 1939.44L1507.5 1800.26Z" fill="#FF6584"/>
<path id="Vector_22" d="M1768.71 2670.11L1711 2620.38L1712.34 2670.11H1694.42L1692.99 2617.53L1615.06 2670.11H1582.44L1692.4 2595.91L1688.14 2440.09L1684.96 2322.41L1702.84 2321.91L1706.07 2440.09L1710.33 2595.77L1796.58 2670.11H1768.71Z" fill="#3F3D56"/>
<path id="Vector_23" d="M1497.57 2670.11L1439.85 2620.38L1441.2 2670.11H1423.32L1421.88 2617.53L1343.96 2670.11H1311.34L1421.26 2595.91L1417 2440.09L1413.82 2322.41L1431.74 2321.91L1434.97 2440.09L1439.18 2595.77L1525.44 2670.11H1497.57Z" fill="#3F3D56"/>
<path id="Vector_24" d="M1541.39 1156.57C1525.59 1156.57 1511.64 1169.18 1502.32 1188.54C1494.1 1159.43 1476.83 1139.18 1456.67 1139.18C1455.3 1139.32 1453.94 1139.55 1452.6 1139.88C1444.85 1108.79 1426.83 1086.99 1405.83 1086.99C1377.76 1086.99 1355 1125.93 1355 1173.97C1355 1222.01 1377.76 1260.96 1405.83 1260.96C1407.2 1260.82 1408.56 1260.58 1409.9 1260.25C1417.65 1291.34 1435.67 1313.15 1456.67 1313.15C1472.48 1313.15 1486.42 1300.54 1495.75 1281.17C1503.96 1310.29 1521.23 1330.54 1541.39 1330.54C1569.47 1330.54 1592.23 1291.6 1592.23 1243.56C1592.23 1195.52 1569.47 1156.57 1541.39 1156.57Z" fill="#3F3D56"/>
<path id="Vector_25" d="M992.137 2015.72C969.884 2015.72 947.849 2011.22 927.29 2002.47C906.731 1993.73 888.051 1980.92 872.315 1964.76C856.58 1948.61 844.098 1929.43 835.583 1908.32C827.067 1887.21 822.684 1864.59 822.684 1841.75V1754.76C822.684 1708.62 840.537 1664.37 872.315 1631.74C904.094 1599.12 947.196 1580.79 992.137 1580.79V2015.72Z" fill="#6C63FF"/>
<path id="Vector_26" d="M2073.71 1580.79C2095.96 1580.79 2118 1585.29 2138.55 1594.03C2159.11 1602.78 2177.79 1615.59 2193.53 1631.74C2209.26 1647.9 2221.75 1667.08 2230.26 1688.18C2238.78 1709.29 2243.16 1731.91 2243.16 1754.76V1841.75C2243.16 1864.59 2238.78 1887.21 2230.26 1908.32C2221.75 1929.43 2209.26 1948.61 2193.53 1964.76C2177.79 1980.92 2159.11 1993.73 2138.55 2002.47C2118 2011.22 2095.96 2015.71 2073.71 2015.71L2073.71 1580.79Z" fill="#6C63FF"/>
<path id="Vector_27" d="M2162.5 1768.43H2135.62C2135.62 1418.37 1858.22 1133.57 1517.24 1133.57C1176.26 1133.57 898.861 1418.37 898.861 1768.43H871.975C871.975 1403.15 1161.44 1105.97 1517.24 1105.97C1873.04 1105.97 2162.5 1403.15 2162.5 1768.43Z" fill="#6C63FF"/>
<path id="tone-2" d="M594.579 1236.43L594.584 1236.42L581.953 1231.02L528.658 1207.89L509.555 1199.6L508.089 1203.4L482.427 1269.92L554.647 1301.3L555.026 1301.65L550.16 1313.43C549.493 1314.51 548.925 1315.65 548.462 1316.83C545.053 1325.67 551.492 1334.46 557.578 1336.94C563.665 1339.41 571.364 1334.25 574.773 1325.42C578.135 1316.7 574.849 1305.63 568.917 1302.95L568.923 1302.94L556.291 1297.54L513.082 1280.3L537.771 1216.3L534.112 1214.81L509.414 1278.83L504.071 1276.7L528.865 1212.43L529.518 1212.71L580.309 1234.78L580.688 1235.13L575.822 1246.91C575.155 1247.99 574.587 1249.13 574.124 1250.31C570.714 1259.15 577.153 1267.94 583.24 1270.42C589.327 1272.89 597.025 1267.73 600.434 1258.9C603.797 1250.18 600.511 1239.11 594.579 1236.43Z" fill="#3F3D56"/>
<path id="tone-1" d="M844.545 1399.74C818.329 1384.35 823.575 1350.58 823.575 1350.58C822.915 1328.64 805.26 1331.75 805.26 1331.75L798.835 1333.25C795.85 1331.83 792.563 1331.21 789.281 1331.44L779.507 1333.13C801.763 1338.5 799.934 1357.61 799.934 1357.61L803.052 1379.96L744.734 1355.81L751.43 1339.6C752.356 1338.1 753.145 1336.52 753.789 1334.88C758.524 1322.6 749.581 1310.39 741.127 1306.96C732.673 1303.52 721.981 1310.68 717.245 1322.96C712.575 1335.06 717.14 1350.44 725.378 1354.16L725.371 1354.17L742.914 1361.67L743.045 1361.25L844.545 1399.74ZM814.931 1360.47L816.801 1381.86C810.198 1372.35 807.095 1360.74 808.046 1349.1C807.891 1344.96 806.531 1340.96 804.141 1337.62C807.815 1340.04 810.768 1343.45 812.672 1347.48C814.576 1351.52 815.358 1356.01 814.931 1360.47Z" fill="#3F3D56"/>
<path id="tone-5" d="M399.693 1083.36L399.7 1083.35L382.157 1075.84L308.836 1046.58L327.341 1029.68C330.962 1024.72 336.308 1021.4 342.261 1020.4C348.215 1019.4 354.316 1020.8 359.287 1024.31L353.544 1015.54C353.544 1015.54 342.748 1000.87 327.636 1016.4C327.636 1016.4 308.937 1044.7 279.567 1037.48L379.873 1081.07L380.4 1081.56L373.641 1097.92C372.715 1099.42 371.926 1101 371.282 1102.64C366.547 1114.92 375.49 1127.13 383.944 1130.56C392.398 1134 403.09 1126.84 407.826 1114.56C412.496 1102.46 407.931 1087.08 399.693 1083.36Z" fill="#3F3D56"/>
<path id="tone-3" d="M668.123 987.589L661.363 1003.95C660.438 1005.45 659.648 1007.03 659.005 1008.67C654.27 1020.95 663.213 1033.16 671.667 1036.59C680.121 1040.03 690.813 1032.87 695.548 1020.59C700.219 1008.49 695.654 993.107 687.416 989.39L687.423 989.376L669.879 981.875L609.866 957.924L644.156 869.037L639.074 866.97L604.77 955.891L597.35 952.929L631.786 863.662L632.694 864.056L703.237 894.709L703.764 895.199L697.004 911.561C696.079 913.058 695.29 914.638 694.646 916.283C689.911 928.558 698.854 940.767 707.308 944.204C715.762 947.642 726.454 940.478 731.189 928.204C735.86 916.097 731.295 900.717 723.057 897.001L723.064 896.986L705.521 889.486L633.828 858.371L631.5 857.36L604.967 845.845L567.29 943.513L667.596 987.099L668.123 987.589Z" fill="#3F3D56"/>
<path id="tone-5_2" d="M350.25 487.393L350.262 487.368L320.062 474.457L193.844 424.084L225.7 394.986C225.7 394.986 246.89 364.801 280.692 385.737L270.807 370.653C270.807 370.653 252.222 345.393 226.208 372.119C226.208 372.119 194.02 420.836 143.46 408.418L316.131 483.448L317.038 484.292L305.402 512.458C303.809 515.035 302.45 517.756 301.342 520.588C293.191 541.717 308.586 562.734 323.139 568.652C337.692 574.569 356.098 562.237 364.249 541.108C372.289 520.267 364.431 493.791 350.25 487.393Z" fill="#3F3D56"/>
<path id="tone-4" d="M442.93 910.529C380.248 873.736 392.791 792.996 392.791 792.996C391.214 740.544 349.003 747.968 349.003 747.968L333.64 751.568C326.504 748.167 318.645 746.675 310.796 747.23L287.427 751.268C340.64 764.104 336.268 809.805 336.268 809.805L343.723 863.241L204.29 805.493L220.299 766.74C222.512 763.162 224.4 759.382 225.939 755.449C237.26 726.103 215.878 696.912 195.665 688.693C175.451 680.475 149.888 697.602 138.567 726.948C127.4 755.894 138.313 792.668 158.01 801.553L157.994 801.588L199.938 819.521L200.25 818.505L442.93 910.529ZM372.123 816.638L376.61 867.963C350.284 832.085 355.665 789.458 355.665 789.458C355.294 779.559 352.041 770.001 346.326 762.019C376.568 780.598 372.123 816.638 372.123 816.638Z" fill="#3F3D56"/>
</g>
</svg>
